Coordinates
version=1
nRows=11
nColumns=36
inDegrees=yes

Units are S.I. units (second, meters, Newtons, ...)
If the header above contains a line with 'inDegrees', this indicates whether rotational values are in degrees (yes) or radians (no).

endheader
time	pelvis_tilt	pelvis_list	pelvis_rotation	pelvis_tx	pelvis_ty	pelvis_tz	hip_flexion_r	hip_adduction_r	hip_rotation_r	knee_angle_r	knee_angle_r_beta	ankle_angle_r	subtalar_angle_r	mtp_angle_r	hip_flexion_l	hip_adduction_l	hip_rotation_l	knee_angle_l	knee_angle_l_beta	ankle_angle_l	subtalar_angle_l	mtp_angle_l	lumbar_extension	lumbar_bending	lumbar_rotation	arm_flex_r	arm_add_r	arm_rot_r	elbow_flex_r	pro_sup_r	arm_flex_l	arm_add_l	arm_rot_l	elbow_flex_l	pro_sup_l
      5.17916670	      0.77125278	      0.92480941	      1.30213298	      0.21966833	      0.84481598	      0.07847107	     26.52854307	     -8.02745722	    -12.02824452	     53.14268398	      0.92751481	     26.79245608	      0.21004394	     -7.49999987	     25.04264718	    -18.83471529	     -8.27351349	     50.65678784	      0.88412774	     19.86490682	      6.18699679	     -7.49999987	    -28.32975499	      3.33444165	     -1.24997128	      4.33177887	     -6.50165607	    -10.91285669	     67.77366233	     83.50590885	      4.15445277	    -10.01930341	     -2.41672899	     65.13226129	     73.52785712
      5.18333330	      0.25549654	      0.97700171	      1.35241751	      0.21858325	      0.84644904	      0.07593761	     26.62132200	     -7.88585588	    -11.95540358	     52.08008951	      0.90896904	     26.19830235	     -0.09995745	     -7.49999987	     24.98754815	    -18.43367985	     -8.35607664	     49.49075377	      0.86377660	     19.29433091	      6.04763711	     -7.49999987	    -27.43684302	      3.30260200	     -1.36949430	      3.98172847	     -6.56093113	    -10.92965134	     67.87024536	     82.81064462	      3.81615915	    -10.06015530	     -2.35329554	     65.23406854	     73.14102445
      5.18750000	     -0.16993053	      1.00781804	      1.42792534	      0.21975301	      0.84765138	      0.07480848	     26.57811025	     -7.76784835	    -11.81371476	     51.03264081	      0.89068761	     25.65836457	     -0.26441727	     -7.49999987	     24.92857728	    -18.07523898	     -8.34844318	     48.57179152	      0.84773769	     18.88689677	      5.79103584	     -7.49999987	    -26.63915454	      3.33288956	     -1.47513865	      3.74754818	     -6.69081393	    -10.98016626	     67.92064563	     82.28165172	      3.51865807	    -10.07065583	     -2.27630505	     65.28967132	     72.85430092
      5.19166670	     -0.02524847	      1.02009658	      1.48245927	      0.22193418	      0.85116077	      0.07486000	     25.69907252	     -7.63014816	    -11.84250219	     49.79980093	      0.86917049	     25.08437543	     -0.48194982	     -7.49999987	     24.05990676	    -17.81583993	     -8.49954132	     47.41343555	      0.82752056	     18.34043997	      5.94772800	     -7.49999987	    -26.40793158	      3.44907549	     -1.54337173	      3.73010105	     -6.76851894	    -11.05564157	     67.42309556	     82.17242165	      3.46917600	    -10.07705050	     -2.09517757	     64.80112092	     72.87102251
      5.19583330	     -0.31140024	      1.05690031	      1.53901488	      0.22467779	      0.85126984	      0.07365708	     25.38514914	     -7.59068783	    -11.75039910	     48.94122850	      0.85418558	     24.83994857	     -0.54451740	     -7.49999987	     23.79978421	    -17.57811986	     -8.60906951	     46.60036484	      0.81332980	     18.15211163	      5.90368025	     -7.49999987	    -25.51123153	      3.50585758	     -1.61322679	      3.34038897	     -6.84251343	    -11.21611177	     67.28337376	     81.72890094	      3.09198912	    -10.06578272	     -1.88785320	     64.59620988	     72.72685394
      5.20000000	     -0.68415848	      1.13581695	      1.60207604	      0.22591555	      0.85691013	      0.07188438	     25.00303997	     -7.62626482	    -11.77940852	     47.73789863	      0.83318351	     24.36772551	     -0.43669120	     -7.49999987	     23.50363110	    -17.20673891	     -8.78166276	     45.56429611	      0.79524699	     17.75201119	      5.99046697	     -7.49999987	    -24.53817108	      3.57963104	     -1.77703339	      2.81668237	     -6.86395040	    -11.38603584	     67.26431968	     81.76847507	      2.49845249	     -9.99180578	     -1.73379237	     64.44707568	     72.75824962
      5.20416670	     -0.90930549	      1.19053444	      1.60138052	      0.22760369	      0.85807605	      0.07182731	     24.54789247	     -7.49758124	    -11.51702757	     46.62379429	      0.81373872	     23.91879340	     -0.77646058	     -7.49999987	     23.07552327	    -16.87346547	     -8.83213366	     44.57083467	      0.77790782	     17.38773311	      5.44987164	     -7.49999987	    -23.78718543	      3.56830963	     -1.95132581	      2.42671043	     -6.88612516	    -11.49758612	     67.21449325	     81.35237610	      2.09328603	     -9.95120410	     -1.61154781	     64.28293506	     72.64621928
      5.20833330	     -0.95834177	      1.20212241	      1.67563180	      0.22838769	      0.86149500	      0.07192519	     23.77325010	     -7.39030555	    -11.65124625	     45.30978939	      0.79080501	     23.49449659	     -0.81389470	     -7.49999987	     22.36055013	    -16.64737585	     -8.97432063	     43.32661984	      0.75619217	     16.71355498	      5.39578889	     -7.49999987	    -23.16197259	      3.61294672	     -2.14614674	      2.12809485	     -6.75715252	    -11.84649677	     66.92468164	     80.96992043	      1.83826362	     -9.93624808	     -1.21878872	     63.61235861	     72.61213405
      5.21250000	     -1.29464232	      1.25292822	      1.67889018	      0.23177026	      0.86283786	      0.07209209	     23.41494652	     -7.26220384	    -11.61911468	     44.27273638	      0.77270502	     23.03612864	     -0.92735186	     -7.49999987	     21.94828487	    -16.41909370	     -9.14928367	     42.19119015	      0.73637518	     16.28678430	      5.22167926	     -7.49999987	    -22.08367611	      3.60496897	     -2.29290115	      1.55713765	     -6.72779295	    -11.95098627	     66.96362762	     80.74011872	      1.20590038	     -9.88547454	     -1.01145292	     63.42836341	     72.54219466
      5.21666670	     -1.32612558	      1.37351921	      1.63893774	      0.23214323	      0.86875724	      0.07112318	     22.67210240	     -7.15215351	    -11.50455219	     42.96775980	      0.74992888	     22.42333573	     -1.17116546	     -7.49999987	     21.07071088	    -16.03961010	     -9.42036669	     40.79060144	      0.71193030	     15.66478530	      4.95813400	     -7.49999987	    -21.63093040	      3.54307667	     -2.45018991	      1.18465089	     -6.56209114	    -12.29736514	     67.04749989	     80.78624470	      0.99097291	     -9.97256985	     -0.62818006	     62.88880817	     72.64629089
      5.22083330	     -1.43996677	      1.42450761	      1.59366725	      0.23333868	      0.87201705	      0.06928774	     22.05853567	     -7.04340845	    -11.41377109	     41.66804257	      0.72724454	     21.66395017	     -1.36424733	     -7.49999987	     20.23842838	    -15.61683651	     -9.54446215	     39.24423407	      0.68494110	     14.93494969	      4.57220153	     -7.49999987	    -21.01492349	      3.50218912	     -2.62768044	      0.79894968	     -6.50723359	    -12.41185543	     67.14056512	     80.36850333	      0.66375737	     -9.94412575	     -0.39927884	     62.65439886	     72.63056037
